<svg xmlns="http://www.w3.org/2000/svg" viewBox="0 32 900 254">
  <defs>
    <marker id="arr" viewBox="0 0 10 10" refX="9" refY="5" markerWidth="6" markerHeight="6" orient="auto">
      <path d="M0,0 L10,5 L0,10 z" fill="#6b7280"/>
    </marker>
  </defs>
  <text x="450" y="44" text-anchor="middle" font-size="10" fill="#6b7280">색: 진한 청록 = AX 강력 후보 (SML 4~5점) · 회색 = 사람 유지 (SML 0~2점)</text>
  <line x1="120" y1="60" x2="120" y2="280" stroke="#9ca3af" stroke-width="1"/>
  <line x1="120" y1="105" x2="880" y2="105" stroke="#e5e7eb" stroke-width="1"/>
  <line x1="120" y1="150" x2="880" y2="150" stroke="#e5e7eb" stroke-width="1"/>
  <line x1="120" y1="195" x2="880" y2="195" stroke="#e5e7eb" stroke-width="1"/>
  <line x1="120" y1="240" x2="880" y2="240" stroke="#e5e7eb" stroke-width="1"/>
  <text x="60" y="85" text-anchor="middle" font-size="10" font-weight="700" fill="#374151">고객</text>
  <text x="60" y="130" text-anchor="middle" font-size="10" font-weight="700" fill="#374151">접수담당</text>
  <text x="60" y="175" text-anchor="middle" font-size="10" font-weight="700" fill="#374151">심사담당</text>
  <text x="60" y="220" text-anchor="middle" font-size="10" font-weight="700" fill="#374151">승인자</text>
  <text x="60" y="265" text-anchor="middle" font-size="10" font-weight="700" fill="#374151">발송담당</text>
  <rect x="140" y="68" width="100" height="34" fill="#fff" stroke="#9ca3af" rx="4"/>
  <text x="190" y="89" text-anchor="middle" font-size="10" fill="#374151">이의신청 접수</text>
  <rect x="260" y="113" width="100" height="34" fill="#fff" stroke="#9ca3af" rx="4"/>
  <text x="310" y="134" text-anchor="middle" font-size="10" fill="#374151">분류·배정</text>
  <rect x="380" y="158" width="100" height="34" fill="#0d9488" stroke="#0d9488" rx="4"/>
  <text x="430" y="179" text-anchor="middle" font-size="10" font-weight="700" fill="#fff">사실관계 요약</text>
  <rect x="500" y="158" width="100" height="34" fill="#0d9488" stroke="#0d9488" rx="4"/>
  <text x="550" y="179" text-anchor="middle" font-size="10" font-weight="700" fill="#fff">법령 조회</text>
  <rect x="620" y="158" width="100" height="34" fill="#9ca3af" stroke="#9ca3af" rx="4"/>
  <text x="670" y="179" text-anchor="middle" font-size="10" font-weight="700" fill="#fff">처분 결정</text>
  <rect x="620" y="203" width="100" height="34" fill="#9ca3af" stroke="#9ca3af" rx="4"/>
  <text x="670" y="224" text-anchor="middle" font-size="10" font-weight="700" fill="#fff">검토·승인</text>
  <rect x="740" y="248" width="100" height="34" fill="#fff" stroke="#9ca3af" rx="4"/>
  <text x="790" y="269" text-anchor="middle" font-size="10" fill="#374151">발송</text>
  <line x1="240" y1="85" x2="260" y2="125" stroke="#6b7280" stroke-width="1" marker-end="url(#arr)"/>
  <line x1="360" y1="130" x2="380" y2="170" stroke="#6b7280" stroke-width="1" marker-end="url(#arr)"/>
  <line x1="480" y1="175" x2="500" y2="175" stroke="#6b7280" stroke-width="1" marker-end="url(#arr)"/>
  <line x1="600" y1="175" x2="620" y2="175" stroke="#6b7280" stroke-width="1" marker-end="url(#arr)"/>
  <line x1="670" y1="192" x2="670" y2="203" stroke="#6b7280" stroke-width="1" marker-end="url(#arr)"/>
  <line x1="720" y1="220" x2="740" y2="260" stroke="#6b7280" stroke-width="1" marker-end="url(#arr)"/>
</svg>
