<svg xmlns="http://www.w3.org/2000/svg" viewBox="0 0 780 250">
  <defs>
    <linearGradient id="bg-ov1" x1="0" y1="0" x2="0" y2="1">
      <stop offset="0%" stop-color="#0d9488" stop-opacity="0.10"/>
      <stop offset="100%" stop-color="#0d9488" stop-opacity="0.02"/>
    </linearGradient>
  </defs>

  <rect x="12" y="10" width="756" height="230" fill="url(#bg-ov1)" stroke="#0d9488" stroke-width="2" rx="14"/>

  <!-- 헤더 -->
  <rect x="30" y="26" width="62" height="24" fill="#0d9488" rx="12"/>
  <text x="61" y="42.5" text-anchor="middle" font-size="11" font-weight="700" fill="#fff" letter-spacing="0.5">시연 1</text>
  <text x="106" y="44" font-size="17" font-weight="800" fill="#1f2937">새 민원 10건을 5유형으로 분류</text>
  <text x="750" y="43" text-anchor="end" font-size="11" font-weight="600" fill="#0d9488">Instructions 방식</text>
  <line x1="30" y1="60" x2="750" y2="60" stroke="#0d9488" stroke-width="0.8" stroke-opacity="0.4"/>

  <!-- 패널 1: 분류 대상 -->
  <rect x="30" y="74" width="228" height="150" fill="#fff" stroke="#0d9488" stroke-width="1.2" stroke-opacity="0.55" rx="9"/>
  <circle cx="55" cy="97" r="9" fill="#0d9488"/>
  <text x="55" y="100.5" text-anchor="middle" font-size="10" font-weight="700" fill="#fff">1</text>
  <text x="71" y="101" font-size="11" font-weight="800" fill="#0d9488" letter-spacing="0.3">분류 대상</text>
  <text x="46" y="128" font-size="9.5" font-weight="700" fill="#1f2937" font-family="ui-monospace,Menlo,Consolas,monospace">세션3_신규민원_10건.txt</text>
  <text x="46" y="147" font-size="9.5" fill="#475569">새 이의신청 민원 10건</text>
  <text x="46" y="164" font-size="9.5" fill="#475569">§2와 다른 처음 보는 데이터</text>
  <text x="46" y="181" font-size="9.5" fill="#475569">비정형 텍스트 · 가상 시나리오</text>
  <rect x="42" y="193" width="204" height="24" rx="7" fill="#0d9488" fill-opacity="0.10"/>
  <text x="144" y="209" text-anchor="middle" font-size="9.3" font-weight="600" fill="#0d9488">채팅창에 첨부해 분류 요청</text>

  <!-- 패널 2: 채우는 자산 -->
  <rect x="276" y="74" width="228" height="150" fill="#fff" stroke="#0d9488" stroke-width="1.2" stroke-opacity="0.55" rx="9"/>
  <circle cx="301" cy="97" r="9" fill="#0d9488"/>
  <text x="301" y="100.5" text-anchor="middle" font-size="10" font-weight="700" fill="#fff">2</text>
  <text x="317" y="101" font-size="11" font-weight="800" fill="#0d9488" letter-spacing="0.3">채우는 자산</text>
  <text x="292" y="128" font-size="11" font-weight="700" fill="#1f2937">Gem Instructions</text>
  <text x="292" y="147" font-size="9.5" fill="#475569">A → B → C 3단계로 누적</text>
  <text x="292" y="164" font-size="9.5" fill="#475569">역할·형식 → 5유형 분류 기준</text>
  <text x="292" y="181" font-size="9.5" fill="#475569">→ 애매 처리 규칙 순서로</text>
  <rect x="288" y="193" width="204" height="24" rx="7" fill="#0d9488" fill-opacity="0.10"/>
  <text x="390" y="209" text-anchor="middle" font-size="9.3" font-weight="600" fill="#0d9488">인턴 매뉴얼을 본문에 기입</text>

  <!-- 패널 3: 목적 -->
  <rect x="522" y="74" width="228" height="150" fill="#fff" stroke="#0d9488" stroke-width="1.2" stroke-opacity="0.55" rx="9"/>
  <circle cx="547" cy="97" r="9" fill="#0d9488"/>
  <text x="547" y="100.5" text-anchor="middle" font-size="10" font-weight="700" fill="#fff">3</text>
  <text x="563" y="101" font-size="11" font-weight="800" fill="#0d9488" letter-spacing="0.3">목적</text>
  <text x="538" y="128" font-size="11" font-weight="700" fill="#1f2937">분류 기준을 매뉴얼로</text>
  <text x="538" y="147" font-size="9.5" fill="#475569">한 번 적으면 새 데이터마다 적용</text>
  <text x="538" y="164" font-size="9.5" fill="#475569">채팅 내 분류표 + 히스토그램</text>
  <text x="538" y="181" font-size="9.5" fill="#475569">사람이 신뢰도 '중' 행 검수</text>
  <rect x="534" y="193" width="204" height="24" rx="7" fill="#0d9488" fill-opacity="0.16"/>
  <text x="636" y="209" text-anchor="middle" font-size="9.3" font-weight="600" fill="#0d9488">산출물 · 검수 완료 분류표 → §4</text>
</svg>
